<?xml version="1.0" encoding="iso-8859-1"?>
<!-- Generator: Adobe Illustrator 16.0.0, SVG Export Plug-In . SVG Version: 6.00 Build 0)  -->
<!DOCTYPE svg PUBLIC "-//W3C//DTD SVG 1.1//EN" "http://www.w3.org/Graphics/SVG/1.1/DTD/svg11.dtd">
<svg version="1.1" id="Capa_1" xmlns="http://www.w3.org/2000/svg" xmlns:xlink="http://www.w3.org/1999/xlink" x="0px" y="0px"
	 width="453.986px" height="453.987px" viewBox="0 0 453.986 453.987" style="enable-background:new 0 0 453.986 453.987;"
	 xml:space="preserve">
<g>
	<path d="M435.464,167.722h18.522L378.322,44.951l-75.665,122.771h18.523v89.632h-37.046V126.353h18.521L226.993,3.581
		l-75.664,122.772h18.522v131.001h-37.046v-89.633h18.523L75.665,44.951L0,167.722h18.522l-0.017,162.696H1.181v26.431h17.322
		l-0.01,93.558h175.752v-83.338h65.497v83.338h175.751l-0.009-93.558h17.319v-26.431h-17.322L435.464,167.722z M95.7,419.473H52.608
		v-75.84H95.7V419.473z M95.7,264.913H52.608v-75.84H95.7V264.913z M248.539,229.864h-43.092v-75.842h43.092V229.864z
		 M401.378,419.473h-43.092v-75.84h43.092V419.473z M401.378,264.913h-43.092v-75.84h43.092V264.913z"/>
</g>
<g>
</g>
<g>
</g>
<g>
</g>
<g>
</g>
<g>
</g>
<g>
</g>
<g>
</g>
<g>
</g>
<g>
</g>
<g>
</g>
<g>
</g>
<g>
</g>
<g>
</g>
<g>
</g>
<g>
</g>
</svg>
